<?xml version="1.0" encoding="UTF-8" standalone="no"?>
<svg
   xmlns:dc="http://purl.org/dc/elements/1.1/"
   xmlns:cc="http://creativecommons.org/ns#"
   xmlns:rdf="http://www.w3.org/1999/02/22-rdf-syntax-ns#"
   xmlns:svg="http://www.w3.org/2000/svg"
   xmlns="http://www.w3.org/2000/svg"
   xmlns:sodipodi="http://sodipodi.sourceforge.net/DTD/sodipodi-0.dtd"
   xmlns:inkscape="http://www.inkscape.org/namespaces/inkscape"
   id="svg3432"
   version="1.1"
   inkscape:version="0.48.3.1 r9886"
   width="16"
   height="16"
   sodipodi:docname="ltliten.svg">
  <metadata
     id="metadata3518">
    <rdf:RDF>
      <cc:Work
         rdf:about="">
        <dc:format>image/svg+xml</dc:format>
        <dc:type
           rdf:resource="http://purl.org/dc/dcmitype/StillImage" />
        <dc:title></dc:title>
      </cc:Work>
    </rdf:RDF>
  </metadata>
  <sodipodi:namedview
     pagecolor="#ffffff"
     bordercolor="#666666"
     borderopacity="1"
     objecttolerance="10"
     gridtolerance="10"
     guidetolerance="10"
     inkscape:pageopacity="0"
     inkscape:pageshadow="2"
     inkscape:window-width="1920"
     inkscape:window-height="1025"
     id="namedview3516"
     showgrid="false"
     inkscape:zoom="21.759567"
     inkscape:cx="6.2634472"
     inkscape:cy="9.0136536"
     inkscape:window-x="1918"
     inkscape:window-y="-3"
     inkscape:window-maximized="1"
     inkscape:current-layer="g3444" />
  <desc
     id="desc3434">/home/john/Dropbox/Luna/Bilder/ltliten.DXF - scale = 3.500000</desc>
  <defs
     id="defs3436">
    <marker
       refY="0"
       refX="0"
       style="overflow:visible"
       id="DistanceX"
       orient="auto">
      <path
         style="stroke:#000000;stroke-width:0.5"
         d="M 3,-3 -3,3 M 0,-5 0,5"
         id="path3439"
         inkscape:connector-curvature="0" />
    </marker>
    <symbol
       id="*Model_Space" />
    <symbol
       id="*Paper_Space" />
    <symbol
       id="*Paper_Space0" />
  </defs>
  <g
     inkscape:label="0"
     inkscape:groupmode="layer"
     id="g3444"
     transform="translate(0,-1036.3622)">
    <g
       id="g6711"
       transform="matrix(0.02133333,0,0,0.02133333,0.06299343,1033.137)">
      <rect
         ry="152.94116"
         y="151.18109"
         x="-2.9527588"
         height="750"
         width="750"
         id="rect6115"
         style="fill:#660000;fill-opacity:1;stroke:none" />
      <g
         style="fill:#ffffff"
         transform="matrix(1.103835,0,0,1.103835,1130.3652,-282.40279)"
         id="g6707">
        <path
           style="fill:#ffffff;fill-opacity:1;stroke:none"
           d="m -650.58892,821.17759 0,-16.37232 8.3126,-1.32925 c 4.81012,-0.76918 11.16332,-3.87587 15.07832,-7.37327 l 6.7657,-6.04403 0.57411,-108.31962 0.57412,-108.31962 -55.95297,0 -55.95297,0 -13.77341,-15.38935 c -7.57537,-8.46415 -13.7734,-15.95131 -13.7734,-16.63814 0,-0.68683 76.27546,-1.24878 169.50103,-1.24878 l 169.50102,0 0,32.23639 0,32.23639 -12.15626,0 c -9.81511,0 -12.9193,-0.85964 -16.11819,-4.46359 -5.98476,-6.74254 -23.47534,-17.32638 -35.15845,-21.27494 -6.73524,-2.27633 -20.8401,-3.97093 -40.03552,-4.81001 l -29.63668,-1.29549 0.008,105.87194 c 0.008,101.16408 0.18739,106.16661 4.04825,112.49846 4.80074,7.87339 9.12768,10.44998 20.64071,12.29097 l 8.57954,1.37194 0,16.37232 0,16.37232 -65.51267,0 -65.51266,0 0,-16.37232 -5.4e-4,0 z"
           id="path3522"
           inkscape:connector-curvature="0" />
        <path
           style="fill:#ffffff;fill-opacity:1;stroke:none"
           d="m -736.10477,904.10246 -69.13384,-79.03115 -74.49816,0 -74.49816,0 0,-11.20284 0,-11.20283 21.44714,-0.79391 c 17.89994,-0.66261 23.14243,-1.66635 31.69725,-6.0688 12.40419,-6.38343 22.8168,-19.40192 25.18088,-31.4827 0.96017,-4.90661 1.27782,-60.24333 0.70588,-122.97048 l -1.03988,-114.04936 -5.83534,-5.01731 c -5.17137,-4.44643 -7.83359,-5.01731 -23.39738,-5.01731 l -17.56204,0 0,-17.67802 0,-17.67802 57.19359,0 57.1936,0 0.0457,127.38573 c 0.0443,123.65574 0.16973,127.65979 4.28214,136.74469 2.33006,5.14743 6.755,12.05105 9.83322,15.34137 6.01432,6.42872 23.75351,15.70789 30.55396,15.98242 2.73499,0.11044 19.31451,17.568 48.4107,50.97462 l 44.25117,50.80669 49.33836,0.0187 49.33835,0.0187 11.86724,11.96581 c 20.94269,21.11665 43.81655,32.06762 75.96639,36.36923 l 17.47434,2.33803 20.14149,23.0001 c 11.0778,12.65006 21.4243,24.63792 22.99222,26.6397 2.70802,3.45738 -3.29893,3.63959 -119.9821,3.63959 l -122.83286,0 -69.13383,-79.03115 0,-0.002 z m 131.22823,57.71354 c 13.01315,-6.64939 17.36662,-13.57179 18.32552,-29.13914 0.6768,-10.98783 0.0543,-14.06222 -4.06241,-20.0641 -6.5287,-9.51839 -13.79308,-14.60423 -22.99218,-16.09704 -22.92906,-3.72087 -41.6228,11.8294 -41.6228,34.62371 0,26.8912 26.34656,42.94268 50.35187,30.67657 l 0,0 z"
           id="path3520"
           inkscape:connector-curvature="0" />
      </g>
    </g>
  </g>
</svg>
