<?xml version="1.0" encoding="UTF-8" standalone="no"?>
<!-- Created with Inkscape (http://www.inkscape.org/) -->

<svg
   xmlns:osb="http://www.openswatchbook.org/uri/2009/osb"
   xmlns:dc="http://purl.org/dc/elements/1.1/"
   xmlns:cc="http://creativecommons.org/ns#"
   xmlns:rdf="http://www.w3.org/1999/02/22-rdf-syntax-ns#"
   xmlns:svg="http://www.w3.org/2000/svg"
   xmlns="http://www.w3.org/2000/svg"
   xmlns:xlink="http://www.w3.org/1999/xlink"
   xmlns:sodipodi="http://sodipodi.sourceforge.net/DTD/sodipodi-0.dtd"
   xmlns:inkscape="http://www.inkscape.org/namespaces/inkscape"
   id="svg2933"
   version="1.1"
   inkscape:version="0.91 r13725"
   width="212.59842"
   height="67.32283"
   xml:space="preserve"
   sodipodi:docname="logo_full.svg"
   inkscape:export-filename="/home/john/eclipse_workspace/Luna Cut Mobile/res/drawable-hdpi/luna_header.png"
   inkscape:export-xdpi="90"
   inkscape:export-ydpi="90"><metadata
     id="metadata2939"><rdf:RDF><cc:Work
         rdf:about=""><dc:format>image/svg+xml</dc:format><dc:type
           rdf:resource="http://purl.org/dc/dcmitype/StillImage" /><dc:title /></cc:Work></rdf:RDF></metadata><defs
     id="defs2937"><linearGradient
       id="linearGradient5373"
       osb:paint="solid"><stop
         style="stop-color:#660000;stop-opacity:1;"
         offset="0"
         id="stop5375" /></linearGradient><linearGradient
       id="linearGradient5351"><stop
         style="stop-color:#660000;stop-opacity:1;"
         offset="0"
         id="stop5353" /><stop
         style="stop-color:#660000;stop-opacity:0;"
         offset="1"
         id="stop5355" /></linearGradient><inkscape:perspective
       sodipodi:type="inkscape:persp3d"
       inkscape:vp_x="0 : 0.5 : 1"
       inkscape:vp_y="0 : 1000 : 0"
       inkscape:vp_z="1 : 0.5 : 1"
       inkscape:persp3d-origin="0.5 : 0.33333333 : 1"
       id="perspective2941" /><linearGradient
       inkscape:collect="always"
       xlink:href="#linearGradient5373"
       id="linearGradient5377"
       x1="1.34375"
       y1="80.578125"
       x2="501.46875"
       y2="80.578125"
       gradientUnits="userSpaceOnUse"
       gradientTransform="matrix(0.34003075,0,0,-0.34003075,-0.44649232,54.32818)" /></defs><sodipodi:namedview
     pagecolor="#ffffff"
     bordercolor="#666666"
     borderopacity="1"
     objecttolerance="10"
     gridtolerance="10"
     guidetolerance="10"
     inkscape:pageopacity="0"
     inkscape:pageshadow="2"
     inkscape:window-width="1855"
     inkscape:window-height="1056"
     id="namedview2935"
     showgrid="false"
     inkscape:zoom="1.9070707"
     inkscape:cx="257.05162"
     inkscape:cy="-52.425251"
     inkscape:window-x="65"
     inkscape:window-y="24"
     inkscape:window-maximized="1"
     inkscape:current-layer="g2943"
     units="mm" /><g
     id="g2943"
     inkscape:groupmode="layer"
     inkscape:label="ink_ext_XXXXXX"
     transform="matrix(1.25,0,0,-1.25,0,67.322839)"><path
       style="fill:url(#linearGradient5377);fill-opacity:1;fill-rule:nonzero;stroke:#000000;stroke-width:0.03400308;stroke-miterlimit:4;stroke-dasharray:none;stroke-opacity:1"
       d="m 4.5052077,53.850012 c -2.46153,0 -4.47353002,-2.012005 -4.47353002,-4.47353 l 0,-44.8946854 c 0,-2.461527 2.01200002,-4.47353003 4.47353002,-4.47353003 l 161.0683223,0 c 2.46152,0 4.47353,2.01200303 4.47353,4.47353003 l 0,44.8946854 c 0,2.461525 -2.01201,4.47353 -4.47353,4.47353 l -161.0683223,0 z m 0.44629,-4.186629 11.5504203,0 0,-23.504625 c 0,-1.667811 0.0827,-2.756622 0.25502,-3.272796 0.17133,-0.461574 0.52246,-0.800976 1.04135,-1.030719 0.25629,-0.102638 56.87014,-0.318779 56.87014,-0.318779 l 7.04501,-6.97063 15.12074,0 c 0,0 4.239522,-7.3000364 12.102972,-7.3000364 l 53.49109,0 5.03671,-2.932765 -81.076082,0 -14.41944,14.1325284 -68.1442803,0.116886 0,1.115726 1.38137,0 c 1.60733,0 2.79253,0.368614 3.53845,1.115726 0.6317,0.804397 0.94571,2.096659 0.94571,3.878476 l 0,21.783219 -4.73918,0 0,3.187789 z m 36.9252203,-5.259851 2.30583,0 13.10181,-13.643733 0,13.643733 1.66827,0 0,-19.711157 -0.54192,0 -14.87634,15.365139 0,-15.365139 -1.65765,0 0,19.711157 z m 32.72795,-0.371909 34.321862,0 0.69069,-7.586936 -1.72141,-0.08501 c -0.28911,1.779698 -0.80667,3.045223 -1.55139,3.793468 -0.86258,0.630777 -1.693,1.028248 -2.4971,1.200733 -0.86258,0.229713 -2.24323,0.340031 -4.144132,0.340031 l -5.8549,0 0,-18.255401 c 0,-1.436934 0.13712,-2.444312 0.42504,-3.017773 0.11636,-0.573461 0.57608,-0.889618 1.38137,-0.94571 l 0.60568,0 0,-1.636398 -12.32611,0 0,1.636398 0.7757,0 c 0.86257,0.05609 1.43229,0.372249 1.7214,0.94571 0.34491,0.517368 0.52067,1.522657 0.52067,3.017773 l 0,18.255401 -11.17851,0 -1.16886,2.337711 z m -54.71307,-0.382534 3.49594,0 0,-12.241107 c 0,-0.861087 0.0714,-1.641958 0.21252,-2.358963 0.14325,-0.537061 0.41609,-1.059925 0.80758,-1.562016 0.53974,-0.644741 1.18195,-1.07232 1.93392,-1.285742 0.78879,-0.322714 1.67645,-0.478168 2.67774,-0.478168 1.07564,0.46387 1.7194,0.78654 1.93393,0.966962 0.18081,0.139994 0.79054,1.319461 1.82766,3.538445 0.57466,0.287894 1.05099,0.644201 1.44513,1.073223 0.21423,0.213391 0.63726,0.827777 1.24324,1.827664 l 0,10.519702 4.08037,0 0,-1.179482 -2.58211,0 0,-10.413442 c 0,-1.074717 -0.0839,-2.023608 -0.26565,-2.847757 -0.17723,-0.715484 -0.48239,-1.377492 -0.91383,-1.987055 -0.7131,-1.003497 -1.65009,-1.733256 -2.79463,-2.199574 -1.14573,-0.466078 -2.67789,-0.701313 -4.61167,-0.701313 -3.54427,0 -6.02169,1.001197 -7.41692,3.007147 -0.6084,0.893907 -0.94991,2.038245 -1.02009,3.432186 0,0.180869 -0.003,0.548914 -0.0212,1.105099 -0.0211,0.553501 -0.0319,1.299056 -0.0319,2.231452 l 0,9.552739 z m 49.84639,0 1.93392,0 9.40397,-19.169234 1.47701,0 0,-1.179481 -5.61051,0 0,1.179481 -1.61514,3.655331 0,0.05313 -1.33887,3.060276 -8.59641,0 -3.06027,-6.768737 -1.93393,0 0,1.126352 c 0.35775,0.288014 0.93581,1.201656 1.72141,2.741498 l 7.61882,15.301384 z m -0.10627,-3.750964 -3.53844,-7.416921 7.30004,0 -3.7616,7.416921 z m 34.151852,-10.179671 17.93661,0 0.26566,-0.425038 0.21251,-6.609348 -0.63755,-0.10626 c -0.28674,1.610614 -1.06481,2.900485 -2.31647,3.86785 -1.28894,1.002214 -2.7181,1.610783 -4.29288,1.827666 -0.32373,0.03252 -0.81858,0.05313 -1.49826,0.05313 l -1.72141,0 c -1.39397,-0.178453 -2.61671,-0.615494 -3.65533,-1.296366 -2.21895,-1.36106 -3.45813,-3.468454 -3.70846,-6.333074 l 15.41827,0 0,-1.285741 -15.52452,0 0,-0.05313 c 0,-2.613095 0.80825,-4.696671 2.42271,-6.237439 1.61059,-1.608495 3.82453,-2.412093 6.65186,-2.412093 3.36587,0 6.19868,1.169577 8.49013,3.495941 l 0.64819,-0.329405 c -0.75189,-0.858999 -1.63512,-1.624065 -2.63524,-2.305833 -2.29354,-1.431265 -4.80178,-2.1464454 -7.52318,-2.1464454 -2.43467,0 -4.69939,0.522209 -6.81124,1.5620174 -1.93372,0.999827 -3.42429,2.31799 -4.46291,3.963483 -0.89628,1.431265 -1.338872,2.940358 -1.338872,4.516034 0,2.863724 1.343132,5.292951 4.027252,7.300035 0.0713,0.03497 0.12209,0.05313 0.15938,0.05313 l -0.10625,0 0,2.900887 z m 32.32417,-0.212519 6.66248,0 0,-1.073222 -6.55623,0 c -1.64817,-0.07098 -3.05792,-0.515916 -4.23975,-1.338871 -2.25386,-1.575646 -3.37906,-4.086293 -3.37906,-7.52318 0,-2.540894 0.69696,-4.562761 2.09332,-6.067424 1.43007,-1.610882 3.38412,-2.42272 5.8549,-2.42272 3.00575,0 5.48842,1.150161 7.45943,3.442812 l 0.59505,-0.318779 c -0.68176,-0.931201 -1.47449,-1.693448 -2.36959,-2.263329 -1.93222,-1.397551 -4.1133,-2.0933154 -6.54559,-2.0933154 -2.22134,0 -4.2241,0.5236994 -6.0143,1.5620164 -1.68189,0.931202 -2.97274,2.201751 -3.86784,3.81472 -0.78919,1.357869 -1.17949,2.841696 -1.17949,4.452278 0,2.756313 1.17598,5.135083 3.53845,7.140646 2.14914,1.789276 4.79777,2.688368 7.94822,2.688368 z m 10.25405,-0.318779 3.44281,0 0,-8.755792 9.82902,0 0,8.755792 6.98125,0 0,-1.190108 -3.49594,0 0,-14.982604 c 0,-0.933589 0.16835,-1.548531 0.48879,-1.870169 0.28435,-0.358937 0.87001,-0.559848 1.76391,-0.595055 l 0.75445,0 0,-0.541924 -9.49961,0 0,0.541924 0.75444,0 c 0.85542,0.03521 1.44316,0.236118 1.76391,0.595055 0.32283,0.321638 0.4888,0.93658 0.4888,1.870169 l 0,6.120553 -9.82902,0 0,-6.120553 c 0,-0.895101 0.15415,-1.512426 0.47817,-1.870169 l 2.58211,0 0,-1.136979 -6.50309,0 0,19.17986 z M 38.710178,12.833802 l 1.53014,-1.179481 c 0.34491,-0.850944 0.9204,-2.2021964 1.71078,-4.0484924 0.93478,2.184045 1.40262,3.3613304 1.40262,3.5278194 0,0.07698 -0.0654,0.131344 -0.19126,0.15939 -0.15724,0.03252 -0.38014,0.160137 -0.65881,0.393161 l 2.91151,0 -0.27628,-0.371909 c -0.23779,-0.0057 -0.40293,-0.0132 -0.51004,-0.02125 -0.22378,-0.02208 -0.37259,-0.07023 -0.44629,-0.127512 -0.1641,-0.129194 -0.92415,-1.7552734 -2.27396,-4.8985684 l -0.39316,0 -2.80525,6.5668444 z m 53.1298,-0.170015 c -1.9546,0 -3.53844,-1.582949 -3.53844,-3.5384454 0,-1.953409 1.58384,-3.538445 3.53844,-3.538445 1.9555,0 3.53845,1.585036 3.53845,3.538445 0,1.9554964 -1.58295,3.5384454 -3.53845,3.5384454 z M 10.562008,12.52565 c 1.89045,0 3.43218,-1.532302 3.43218,-3.4215604 0,-1.889258 -1.54173,-3.42156 -3.43218,-3.42156 -1.8904303,0 -3.4215603,1.532302 -3.4215603,3.42156 0,1.8892584 1.53113,3.4215604 3.4215603,3.4215604 z m 35.937,-0.690688 c 0.20498,-0.495289 0.80539,-1.9765454 1.80641,-4.4416524 0.11428,-0.281957 0.22557,-0.461663 0.32941,-0.541924 0.11994,-0.09458 0.33214,-0.148947 0.62693,-0.159389 l 0,-0.382535 -2.33771,0 0,0.382535 c 0.24346,-0.0084 0.35644,-0.01063 0.34003,-0.01063 0.17245,0.0057 0.25502,0.04486 0.25502,0.127511 0,0.10592 -0.1904,0.594554 -0.5738,1.466383 l -1.65765,0 c -0.32283,-0.786794 -0.47817,-1.247294 -0.47817,-1.392001 0,-0.115169 0.0908,-0.182202 0.26565,-0.201893 0.0221,0 0.14712,0.0023 0.38253,0.01063 l 0,-0.382535 -2.08268,0 0,0.371909 c 0.31925,0.01969 0.53271,0.08177 0.64818,0.191267 0.071,0.06773 0.17418,0.261412 0.30815,0.573802 l 1.83829,4.2716364 0.32941,0.116886 z m -10.12654,-0.02125 c 0.85184,0 1.54671,-0.266752 2.09331,-0.796948 0.53826,-0.516472 0.80757,-1.1646184 0.80757,-1.9445514 0,-0.827369 -0.27643,-1.509872 -0.83945,-2.05081 -0.57346,-0.552278 -1.31647,-0.828825 -2.22082,-0.828825 -0.85542,0 -1.5596,0.260599 -2.11457,0.786321 -0.55466,0.524528 -0.82882,1.181396 -0.82882,1.965803 0,0.81454 0.29119,1.4911884 0.88195,2.0401854 0.58987,0.550186 1.3314,0.828825 2.22083,0.828825 z m 23.35586,0 c 0.85303,0 1.5467,-0.266752 2.09331,-0.796948 0.53856,-0.516472 0.80758,-1.1646184 0.80758,-1.9445514 0,-0.827369 -0.27643,-1.509872 -0.83945,-2.05081 -0.57346,-0.55228 -1.31528,-0.828827 -2.22083,-0.828827 -0.85542,0 -1.5596,0.260599 -2.11457,0.786321 -0.55466,0.524528 -0.82882,1.181396 -0.82882,1.965803 0,0.81454 0.29119,1.4911884 0.88195,2.0401854 0.58988,0.550186 1.33259,0.828825 2.22083,0.828825 z m 11.42291,0 c 0.19095,0 0.5788,-0.07289 1.15823,-0.21252 0.0418,-0.306721 0.0977,-0.718709 0.18064,-1.243237 l -0.41441,-0.05313 c -0.16888,0.691018 -0.5375,1.041345 -1.11573,1.041345 -0.25987,0 -0.47297,-0.06691 -0.62693,-0.21252 -0.15485,-0.144706 -0.23377,-0.341673 -0.23377,-0.573802 0,-0.363711 0.26656,-0.6568714 0.78632,-0.8925814 0.28464,-0.122329 0.56931,-0.250772 0.85008,-0.371909 0.32283,-0.155152 0.55589,-0.324759 0.71193,-0.510045 0.19931,-0.241378 0.29753,-0.534839 0.29753,-0.892582 0,-0.516173 -0.20862,-0.934611 -0.62693,-1.253863 -0.38817,-0.298367 -0.85878,-0.44629 -1.42388,-0.44629 -0.4022,0 -0.87708,0.100788 -1.41325,0.308153 -0.022,0.100251 -0.11772,0.553638 -0.2869,1.360123 l 0.39316,0.05313 c 0.20408,-0.406673 0.39568,-0.701144 0.5738,-0.881955 0.25182,-0.256298 0.54767,-0.382535 0.89258,-0.382535 0.66447,0 0.99884,0.30326 0.99884,0.924459 0,0.25182 -0.0812,0.460143 -0.2444,0.626932 -0.12591,0.131578 -0.33542,0.267434 -0.62693,0.403786 -0.60717,0.281063 -0.9866,0.474927 -1.13697,0.584428 -0.40459,0.290312 -0.60569,0.641716 -0.60569,1.0519704 0,0.483653 0.19626,0.876457 0.58444,1.168856 0.36012,0.26823 0.80132,0.403787 1.32824,0.403787 z m -53.51234,-0.127512 1.7214,0 0,-4.1228734 c 0,-0.366098 0.035,-0.587981 0.0956,-0.669436 0.0898,-0.12591 0.32114,-0.202077 0.70132,-0.212519 l 0,-0.371909 -1.73203,0 0,4.1228734 c 0,0.388176 -0.0218,0.62087 -0.0744,0.690688 -0.0794,0.117855 -0.31532,0.183212 -0.71194,0.191267 l 0,0.371909 z m 3.97411,0 0.47817,0 3.59157,-3.8784764 0,3.8784764 1.38138,0 0,-0.371909 c -0.46725,-0.0045 -0.72103,-0.123417 -0.76507,-0.34003 -0.0434,-0.21572 -0.0638,-0.714153 -0.0638,-1.4982614 l 0,-3.219666 -0.37191,0 -3.70846,4.0591174 0,-2.6033604 c 0.002,-0.272708 0.0275,-0.493283 0.0744,-0.680062 0.0513,-0.209752 0.34089,-0.33186 0.8607,-0.350657 l 0,-0.371909 -2.30583,0 0,0.371909 c 0.4676,0.006 0.71631,0.118644 0.75444,0.340031 0.0457,0.249433 0.0744,0.750254 0.0744,1.49826 l 0,3.1665374 z m 6.21618,0 0.4888,0 3.58095,-3.8784764 0,3.8784764 1.38137,0 0,-0.371909 c -0.46724,-0.0045 -0.72091,-0.123417 -0.76507,-0.34003 -0.0433,-0.21572 -0.0638,-0.714153 -0.0638,-1.4982614 l 0,-3.219666 -0.37191,0 -3.69783,4.0591174 0,-2.6033604 c 0.003,-0.272708 0.0279,-0.493283 0.0744,-0.680062 0.0513,-0.209752 0.33002,-0.33186 0.85008,-0.350657 l 0,-0.371909 -2.30584,0 0,0.371909 c 0.46749,0.006 0.71599,0.118644 0.75445,0.340031 0.0457,0.249433 0.0744,0.750254 0.0744,1.49826 l 0,3.1665374 z m 20.82689,0 4.96232,0 c 0,-0.319551 0.0255,-0.769357 0.0744,-1.360123 l -0.40378,-0.0425 c -0.0931,0.415922 -0.20249,0.676522 -0.34003,0.786322 -0.13875,0.108306 -0.43422,0.159389 -0.87133,0.159389 l -0.4888,0 0,-3.6659574 c 0,-0.38012 0.0449,-0.613892 0.12751,-0.701314 0.0979,-0.105919 0.3648,-0.170199 0.80758,-0.180641 l 0,-0.371909 -2.77338,0 0,0.371909 c 0.4207,0.01044 0.68487,0.08195 0.78632,0.201893 0.0794,0.08981 0.11689,0.316351 0.11689,0.680062 l 0,3.6659574 -1.99768,0 0,0.456916 z m 5.41924,0 1.7214,0 0,-4.1228734 c 0,-0.366098 0.0253,-0.587981 0.085,-0.669436 0.0907,-0.12591 0.33212,-0.202077 0.71194,-0.212519 l 0,-0.371909 -1.73203,0 0,4.1228734 c 0,0.388176 -0.0219,0.62087 -0.0744,0.690688 -0.0791,0.117855 -0.3157,0.183212 -0.71194,0.191267 l 0,0.371909 z m 9.36147,0 0.4888,0 3.59157,-3.8784764 0,3.8784764 1.38137,0 0,-0.371909 c -0.46723,-0.0045 -0.7221,-0.123417 -0.76506,-0.34003 -0.0442,-0.21572 -0.0744,-0.714153 -0.0744,-1.4982614 l 0,-3.219666 -0.37191,0 -3.69783,4.0591174 0,-2.6033604 c 0.002,-0.272708 0.0278,-0.493283 0.0744,-0.680062 0.0513,-0.209752 0.33975,-0.33186 0.8607,-0.350657 l 0,-0.371909 -2.30583,0 0,0.371909 c 0.46724,0.006 0.71595,0.118644 0.75444,0.340031 0.0466,0.249433 0.0638,0.750254 0.0638,1.49826 l 0,3.1665374 z m -27.29809,-0.34003 c -0.61195,0 -1.07741,-0.222965 -1.40263,-0.680062 -0.27987,-0.39265 -0.41441,-0.8991404 -0.41441,-1.4982604 0,-0.658497 0.16614,-1.216317 0.49942,-1.689528 0.3825,-0.552278 0.91075,-0.828825 1.58327,-0.828825 0.59315,0 1.05018,0.210894 1.38137,0.637558 0.28882,0.377434 0.43566,0.852803 0.43566,1.423879 0,1.7576804 -0.69707,2.6352384 -2.08268,2.6352384 z m 23.36648,0 c -0.61195,0 -1.08803,-0.222965 -1.41325,-0.680062 -0.27867,-0.392652 -0.41441,-0.8991424 -0.41441,-1.4982624 0,-0.658497 0.16614,-1.216317 0.49942,-1.689528 0.38251,-0.552278 0.91075,-0.828825 1.58327,-0.828825 0.59315,0 1.05019,0.210894 1.38137,0.637558 0.29002,0.377434 0.43567,0.852803 0.43567,1.423879 0,1.7576804 -0.68525,2.6352384 -2.07207,2.6352384 z m -13.38871,-0.956339 -0.62693,-1.6045204 1.26449,0 -0.63756,1.6045204 z"
       id="path2947"
       inkscape:connector-curvature="0" /></g></svg>