<?xml version="1.0" encoding="UTF-8" standalone="no"?>
<svg
   xmlns:dc="http://purl.org/dc/elements/1.1/"
   xmlns:cc="http://creativecommons.org/ns#"
   xmlns:rdf="http://www.w3.org/1999/02/22-rdf-syntax-ns#"
   xmlns:svg="http://www.w3.org/2000/svg"
   xmlns="http://www.w3.org/2000/svg"
   xmlns:sodipodi="http://sodipodi.sourceforge.net/DTD/sodipodi-0.dtd"
   xmlns:inkscape="http://www.inkscape.org/namespaces/inkscape"
   id="svg3432"
   version="1.1"
   inkscape:version="0.91 r13725"
   width="16"
   height="16"
   sodipodi:docname="logo_icon.svg">
  <metadata
     id="metadata3518">
    <rdf:RDF>
      <cc:Work
         rdf:about="">
        <dc:format>image/svg+xml</dc:format>
        <dc:type
           rdf:resource="http://purl.org/dc/dcmitype/StillImage" />
        <dc:title />
      </cc:Work>
    </rdf:RDF>
  </metadata>
  <sodipodi:namedview
     pagecolor="#ffffff"
     bordercolor="#666666"
     borderopacity="1"
     objecttolerance="10"
     gridtolerance="10"
     guidetolerance="10"
     inkscape:pageopacity="0"
     inkscape:pageshadow="2"
     inkscape:window-width="1855"
     inkscape:window-height="1056"
     id="namedview3516"
     showgrid="false"
     inkscape:zoom="3.8465844"
     inkscape:cx="-28.585873"
     inkscape:cy="13.512093"
     inkscape:window-x="65"
     inkscape:window-y="24"
     inkscape:window-maximized="1"
     inkscape:current-layer="g3444" />
  <desc
     id="desc3434">/home/john/Dropbox/Luna/Bilder/ltliten.DXF - scale = 3.500000</desc>
  <defs
     id="defs3436">
    <marker
       refY="0"
       refX="0"
       style="overflow:visible"
       id="DistanceX"
       orient="auto">
      <path
         style="stroke:#000000;stroke-width:0.5"
         d="M 3,-3 -3,3 M 0,-5 0,5"
         id="path3439"
         inkscape:connector-curvature="0" />
    </marker>
    <symbol
       id="*Model_Space" />
    <symbol
       id="*Paper_Space" />
    <symbol
       id="*Paper_Space0" />
  </defs>
  <g
     inkscape:label="0"
     inkscape:groupmode="layer"
     id="g3444"
     transform="translate(0,-1036.3622)">
    <g
       id="g5440"
       transform="matrix(0.53333333,0,0,0.53333333,-10.266667,501.36902)"
       inkscape:export-xdpi="90"
       inkscape:export-ydpi="90">
      <rect
         ry="12.235293"
         y="1014.3622"
         x="-22"
         height="60"
         width="60"
         id="rect6115"
         style="fill:#660000;fill-opacity:1;stroke:none" />
      <path
         inkscape:connector-curvature="0"
         id="path3522"
         d="m 11.214011,1052.1911 0,-1.4458 0.734059,-0.1174 c 0.424767,-0.068 0.985798,-0.3423 1.331519,-0.6511 l 0.597457,-0.5337 0.0507,-9.5654 0.0507,-9.5654 -4.941027,0 -4.941028,0 -1.216286,-1.3589 c -0.668956,-0.7475 -1.216285,-1.4086 -1.216285,-1.4693 0,-0.061 6.735642,-0.1103 14.968094,-0.1103 l 14.968093,0 0,2.8467 0,2.8467 -1.073481,0 c -0.866741,0 -1.140862,-0.076 -1.423346,-0.3942 -0.528495,-0.5954 -2.073032,-1.53 -3.10473,-1.8787 -0.594767,-0.201 -1.840322,-0.3506 -3.535408,-0.4247 l -2.617121,-0.1144 7.07e-4,9.3492 c 7.06e-4,8.9335 0.01655,9.3752 0.357488,9.9344 0.423938,0.6952 0.806036,0.9228 1.822715,1.0853 l 0.757631,0.1212 0,1.4458 0,1.4458 -5.785214,0 -5.785213,0 0,-1.4458 -4.8e-5,0 z"
         style="fill:#ffffff;fill-opacity:1;stroke:none" />
      <path
         inkscape:connector-curvature="0"
         id="path3520"
         d="m 3.66238,1059.5139 -6.104988,-6.979 -6.578694,0 -6.578694,0 0,-0.9893 0,-0.9893 1.893928,-0.07 c 1.580687,-0.059 2.043634,-0.1471 2.799083,-0.5359 1.095374,-0.5637 2.014878,-1.7133 2.223643,-2.7801 0.08479,-0.4333 0.11284,-5.3199 0.06233,-10.8591 l -0.09183,-10.0714 -0.5153,-0.443 c -0.456667,-0.3927 -0.691759,-0.4431 -2.066148,-0.4431 l -1.550847,0 0,-1.5611 0,-1.5611 5.050583,0 5.050584,0 0.004,11.249 c 0.0039,10.9197 0.01499,11.2733 0.378142,12.0755 0.20576,0.4546 0.596513,1.0642 0.86834,1.3548 0.531106,0.5677 2.097597,1.3871 2.698123,1.4113 0.241518,0.01 1.705602,1.5514 4.274994,4.5014 l 3.907679,4.4866 4.356913,0 4.356912,0 1.047958,1.0567 c 1.849382,1.8647 3.869299,2.8318 6.708348,3.2116 l 1.543103,0.2065 1.778631,2.0311 c 0.978245,1.117 1.891911,2.1757 2.030369,2.3524 0.239137,0.3053 -0.291318,0.3214 -10.595235,0.3214 l -10.846977,0 -6.104987,-6.979 0,-10e-5 z m 11.588345,5.0965 c 1.14915,-0.5872 1.533591,-1.1985 1.618268,-2.5732 0.05977,-0.9703 0.0048,-1.2418 -0.358738,-1.7718 -0.576529,-0.8405 -1.218023,-1.2896 -2.030366,-1.4215 -2.024792,-0.3285 -3.675576,1.0447 -3.675576,3.0576 0,2.3746 2.32658,3.7921 4.446412,2.7089 l 0,0 z"
         style="fill:#f5f5f5;fill-opacity:1;stroke:none" />
    </g>
  </g>
</svg>
