<?xml version="1.0" encoding="UTF-8" standalone="no"?>
<!-- Created with Inkscape (http://www.inkscape.org/) -->

<svg
   xmlns:osb="http://www.openswatchbook.org/uri/2009/osb"
   xmlns:dc="http://purl.org/dc/elements/1.1/"
   xmlns:cc="http://creativecommons.org/ns#"
   xmlns:rdf="http://www.w3.org/1999/02/22-rdf-syntax-ns#"
   xmlns:svg="http://www.w3.org/2000/svg"
   xmlns="http://www.w3.org/2000/svg"
   xmlns:xlink="http://www.w3.org/1999/xlink"
   xmlns:sodipodi="http://sodipodi.sourceforge.net/DTD/sodipodi-0.dtd"
   xmlns:inkscape="http://www.inkscape.org/namespaces/inkscape"
   id="svg2933"
   version="1.1"
   inkscape:version="0.91 r13725"
   width="600"
   height="191"
   xml:space="preserve"
   sodipodi:docname="logo_full.svg"
   inkscape:export-filename="/home/john/eclipse_workspace/Luna Cut Mobile/res/drawable-hdpi/luna_header.png"
   inkscape:export-xdpi="90"
   inkscape:export-ydpi="90"><metadata
     id="metadata2939"><rdf:RDF><cc:Work
         rdf:about=""><dc:format>image/svg+xml</dc:format><dc:type
           rdf:resource="http://purl.org/dc/dcmitype/StillImage" /><dc:title /></cc:Work></rdf:RDF></metadata><defs
     id="defs2937"><linearGradient
       id="linearGradient5373"
       osb:paint="solid"><stop
         style="stop-color:#970908;stop-opacity:1;"
         offset="0"
         id="stop5375" /></linearGradient><linearGradient
       id="linearGradient5351"><stop
         style="stop-color:#660000;stop-opacity:1;"
         offset="0"
         id="stop5353" /><stop
         style="stop-color:#660000;stop-opacity:0;"
         offset="1"
         id="stop5355" /></linearGradient><inkscape:perspective
       sodipodi:type="inkscape:persp3d"
       inkscape:vp_x="0 : 0.5 : 1"
       inkscape:vp_y="0 : 1000 : 0"
       inkscape:vp_z="1 : 0.5 : 1"
       inkscape:persp3d-origin="0.5 : 0.33333333 : 1"
       id="perspective2941" /><linearGradient
       inkscape:collect="always"
       xlink:href="#linearGradient5373"
       id="linearGradient5377"
       x1="1.34375"
       y1="80.578125"
       x2="501.46875"
       y2="80.578125"
       gradientUnits="userSpaceOnUse"
       gradientTransform="matrix(0.95993194,0,0,-0.9601994,-1.332901,153.77107)" /></defs><sodipodi:namedview
     pagecolor="#ffffff"
     bordercolor="#666666"
     borderopacity="1"
     objecttolerance="10"
     gridtolerance="10"
     guidetolerance="10"
     inkscape:pageopacity="0"
     inkscape:pageshadow="2"
     inkscape:window-width="1855"
     inkscape:window-height="1056"
     id="namedview2935"
     showgrid="false"
     inkscape:zoom="7.6282828"
     inkscape:cx="525.38348"
     inkscape:cy="47.217164"
     inkscape:window-x="65"
     inkscape:window-y="24"
     inkscape:window-maximized="1"
     inkscape:current-layer="g2943"
     units="mm" /><g
     id="g2943"
     inkscape:groupmode="layer"
     inkscape:label="ink_ext_XXXXXX"
     transform="matrix(1.25,0,0,-1.25,0,191.00001)"><path
       inkscape:export-ydpi="90"
       inkscape:export-xdpi="90"
       inkscape:export-filename="/home/john/dev/lunatechDOTse/img/logo_full_w600.png"
       inkscape:connector-curvature="0"
       id="path4153"
       d="m 13.025058,151.98301 c -6.9374983,0 -12.608056,-5.6489 -12.608056,-12.55988 l 0,-126.04625 c 0,-6.9109805 5.6705577,-12.5598705 12.608056,-12.5598705 l 453.949882,0 c 6.93747,0 12.60806,5.64889 12.60806,12.5598705 l 0,126.04625 c 0,6.91098 -5.67059,12.55988 -12.60806,12.55988 z"
       style="fill:#ffffff;fill-opacity:1;fill-rule:nonzero;stroke:#000000;stroke-width:0.03400307;stroke-miterlimit:4;stroke-dasharray:none;stroke-opacity:1"
       sodipodi:nodetypes="sssssssss" /><path
       style="fill:url(#linearGradient5377);fill-opacity:1;fill-rule:nonzero;stroke:#000000;stroke-width:0.03400307;stroke-miterlimit:4;stroke-dasharray:none;stroke-opacity:1"
       d="m 12.646115,152.42079 c -6.949082,0 -12.629107,-5.68162 -12.629107,-12.63262 l 0,-126.776325 c 0,-6.9510075 5.680025,-12.63262345 12.629107,-12.63262345 l 454.707765,0 c 6.94905,0 12.62911,5.68161595 12.62911,12.63262345 l 0,126.776325 c 0,6.951 -5.68006,12.63262 -12.62911,12.63262 z m 1.259909,-11.82245 32.60769,0 0,-66.37378 c 0,-4.709665 0.233468,-7.784316 0.719941,-9.241919 0.483677,-1.303421 1.474943,-2.261844 2.939808,-2.910607 0.723525,-0.289835 160.548597,-0.900187 160.548597,-0.900187 l 19.88858,-19.684087 42.68697,0 c 0,0 11.96848,-20.614284 34.16758,-20.614284 l 151.0093,0 14.21901,-8.281719 -228.88377,0 -40.70715,39.908288 -192.376325,0.33007 0,3.150655 3.899709,0 c 4.537612,0 7.883519,1.040914 9.989306,3.150654 1.783336,2.271505 2.66981,5.920673 2.66981,10.952275 l 0,61.512771 -13.379056,0 z m 104.242616,-14.85309 6.50953,0 36.98738,-38.527992 0,38.527992 4.70964,0 0,-55.661551 -1.52988,0 -41.997,43.389001 0,-43.389001 -4.67967,0 z m 92.39342,-1.05022 96.89315,0 1.94987,-21.42445 -4.85967,-0.24005 c -0.81617,5.02562 -2.27728,8.59928 -4.37968,10.71222 -2.43513,1.78123 -4.77947,2.90363 -7.0495,3.39071 -2.43513,0.64867 -6.33281,0.9602 -11.69919,0.9602 l -16.52882,0 0,-51.550706 c 0,-4.057701 0.3871,-6.902396 1.19992,-8.52177 0.32849,-1.619374 1.62632,-2.512157 3.89971,-2.670553 l 1.70988,0 0,-4.62096 -34.79752,0 0,4.62096 2.18986,0 c 2.4351,0.15839 4.04346,1.051179 4.85964,2.670553 0.9737,1.460975 1.46989,4.299771 1.46989,8.52177 l 0,51.550706 -31.55776,0 z m -144.589728,-1.08022 0,-34.567173 c 0,-2.43159 0.20156,-4.636661 0.59996,-6.661383 0.4044,-1.516585 1.17465,-2.99308 2.27985,-4.410915 1.52373,-1.820659 3.33673,-3.028082 5.4596,-3.630756 2.22681,-0.911299 4.73274,-1.35028 7.55946,-1.35028 3.03661,1.309904 4.85399,2.221079 5.45962,2.730566 0.51044,0.395324 2.23176,3.725974 5.15962,9.992075 1.62231,0.812973 2.96703,1.819134 4.07971,3.030632 0.60479,0.602587 1.79903,2.337527 3.509758,5.161068 l 0,29.706166 11.51918,0 0,-3.33069 -7.28949,0 0,-29.406105 c 0,-3.034851 -0.23685,-5.714387 -0.74995,-8.041668 -0.50033,-2.020427 -1.36182,-3.889846 -2.5798,-5.611167 -2.013128,-2.833735 -4.658328,-4.894473 -7.889448,-6.21129 -3.23448,-1.316139 -7.55988,-1.98041 -13.01908,-1.98041 -10.00574,0 -16.99967,2.827241 -20.93851,8.491764 -1.71756,2.524269 -2.68167,5.755719 -2.879791,9.692014 0,0.510749 -0.0085,1.550057 -0.05985,3.120646 -0.05957,1.563009 -0.09006,3.66835 -0.09006,6.30131 l -4e-5,26.975596 z m 130.850728,0 5.4596,0 26.5481,-54.131237 4.16971,0 0,-3.33069 -15.83888,0 0,3.33069 -4.55966,10.322144 0,0.150032 -3.77973,8.641793 -24.2683,0 -8.63937,-19.113969 -5.45963,0 0,3.18066 c 1.00996,0.813312 2.64186,3.393309 4.85967,7.741608 z m -0.30001,-10.5922 -9.98927,-20.944346 20.60855,0 z m 96.41321,-28.745965 50.63637,0 0.74998,-1.200248 0.59993,-18.663876 -1.79985,-0.300064 c -0.80949,4.548149 -3.00604,8.190565 -6.53957,10.922269 -3.63877,2.830112 -7.67339,4.548626 -12.11911,5.161074 -0.91392,0.09183 -2.31091,0.150031 -4.2297,0.150031 l -4.85967,0 c -3.93528,-0.503926 -7.38716,-1.738069 -10.31927,-3.660756 -6.26426,-3.843444 -9.76255,-9.794431 -10.46925,-17.883718 l 43.52691,0 0,-3.630753 -43.82686,0 0,-0.150032 c 0,-7.379015 2.28175,-13.262743 6.83949,-17.613657 4.54681,-4.542166 10.79693,-6.811414 18.77869,-6.811414 9.5021,0 17.49933,3.302722 23.96826,9.872049 l 1.82989,-0.930194 c -2.12264,-2.425693 -4.61606,-4.586133 -7.43948,-6.51135 -6.47483,-4.041693 -13.55578,-6.061263 -21.23849,-6.061263 -6.87325,0 -13.26673,1.474646 -19.22863,4.41092 -5.45904,2.823372 -9.66703,6.54568 -12.59913,11.192323 -2.53026,4.041692 -3.77973,8.303161 -3.77973,12.75265 0,8.086757 3.79176,14.946555 11.36923,20.61428 0.20128,0.09875 0.34467,0.150032 0.44994,0.150032 l -0.29995,0 z m 91.25352,-0.600124 18.80867,0 0,-3.030629 -18.50872,0 c -4.65291,-0.200438 -8.63273,-1.456875 -11.96913,-3.780785 -6.36281,-4.449404 -9.53933,-11.539121 -9.53933,-21.244411 0,-7.17513 1.96757,-12.8846 5.90959,-17.133559 4.0372,-4.548906 9.55362,-6.841423 16.52882,-6.841423 8.48545,0 15.49421,3.247894 21.05852,9.722021 l 1.67987,-0.900188 c -1.92466,-2.629581 -4.16259,-4.78206 -6.68953,-6.391325 -5.4548,-3.946489 -11.61215,-5.911231 -18.47868,-5.911231 -6.27101,0 -11.92495,1.478854 -16.97882,4.410917 -4.74809,2.629584 -8.39226,6.217437 -10.91919,10.772237 -2.22794,3.834433 -3.32979,8.024553 -3.32979,12.572612 0,7.783443 3.31988,14.500758 9.98931,20.164188 6.06718,5.052666 13.54445,7.591576 22.43841,7.591576 z m 28.94794,-0.900187 9.71931,0 0,-24.725135 27.74805,0 0,24.725135 19.70858,0 0,-3.360699 -9.8693,0 0,-42.308784 c 0,-2.636325 0.47527,-4.372835 1.37989,-5.281096 0.80274,-1.013588 2.45611,-1.580933 4.97965,-1.680352 l 2.12987,0 0,-1.530318 -26.8181,0 0,1.530318 2.12984,0 c 2.41491,0.09943 4.07415,0.666764 4.97965,1.680352 0.91137,0.908261 1.37992,2.644771 1.37992,5.281096 l 0,17.283588 -27.74805,0 0,-17.283588 c 0,-2.52764 0.43517,-4.27088 1.3499,-5.281096 l 7.28949,0 0,-3.21067 -18.3587,0 z m -303.90846,-46.179591 4.3197,-3.330689 c 0.97371,-2.402947 2.59836,-6.218696 4.82966,-11.432378 2.63895,6.167438 3.9597,9.491928 3.9597,9.96207 0,0.217381 -0.18463,0.370897 -0.53994,0.450095 -0.4439,0.09183 -1.07317,0.452204 -1.85987,1.110232 l 8.21941,0 -0.77996,-1.050219 c -0.6713,-0.0161 -1.1375,-0.03727 -1.43988,-0.06001 -0.63175,-0.06235 -1.05185,-0.19832 -1.25991,-0.360077 -0.46327,-0.364825 -2.60895,-4.956647 -6.41956,-13.832873 l -1.10992,0 z m 149.98935,-0.480098 c -5.51798,0 -9.98927,-4.470027 -9.98927,-9.992076 0,-5.516155 4.47129,-9.992075 9.98927,-9.992075 5.52053,0 9.98931,4.47592 9.98931,9.992075 0,5.522049 -4.46878,9.992076 -9.98931,9.992076 z M 29.744909,35.726565 c 5.33688,0 9.689298,-4.327007 9.689298,-9.662009 0,-5.335001 -4.352418,-9.662008 -9.689298,-9.662008 -5.336824,0 -9.659317,4.327007 -9.659317,9.662008 0,5.335002 4.322493,9.662009 9.659317,9.662009 z M 131.19771,33.776159 c 0.57867,-1.398627 2.27367,-5.581489 5.09962,-12.542607 0.32262,-0.796207 0.6368,-1.303672 0.92995,-1.530318 0.3386,-0.267081 0.93766,-0.420605 1.76987,-0.450092 l 0,-1.080226 -6.59953,0 0,1.080226 c 0.68731,-0.02372 1.00626,-0.03002 0.95993,-0.03002 0.48684,0.0161 0.71994,0.126679 0.71994,0.360073 0,0.299104 -0.53751,1.678938 -1.61988,4.140861 l -4.67966,0 c -0.91138,-2.221796 -1.34991,-3.522184 -1.34991,-3.930816 0,-0.325221 0.25633,-0.514513 0.74995,-0.570118 0.0624,0 0.41533,0.0065 1.07991,0.03002 l 0,-1.080226 -5.87956,0 0,1.050219 c 0.90126,0.0556 1.50388,0.230908 1.82986,0.540112 0.20044,0.19126 0.49172,0.738191 0.86993,1.620337 l 5.18963,12.062505 z m -28.58798,-0.06001 c 2.40481,0 4.36648,-0.753271 5.90957,-2.25047 1.51955,-1.458445 2.27983,-3.28872 2.27983,-5.491142 0,-2.336375 -0.78038,-4.263668 -2.36983,-5.791202 -1.61892,-1.559556 -3.71649,-2.340486 -6.26954,-2.340486 -2.414898,0 -4.402858,0.735895 -5.969578,2.220461 -1.56584,1.481194 -2.33982,3.336098 -2.33982,5.551153 0,2.300148 0.82205,4.210908 2.48981,5.761199 1.66525,1.553649 3.758638,2.340487 6.269558,2.340487 z m 65.93532,0 c 2.40817,0 4.36645,-0.753271 5.90957,-2.25047 1.5204,-1.458445 2.27986,-3.28872 2.27986,-5.491142 0,-2.336375 -0.78038,-4.263668 -2.36983,-5.791202 -1.61892,-1.559561 -3.71313,-2.340491 -6.26957,-2.340491 -2.41491,0 -4.40286,0.735895 -5.96958,2.22046 -1.56585,1.481194 -2.33982,3.336098 -2.33982,5.551154 0,2.300147 0.82205,4.210908 2.48981,5.761199 1.66527,1.553648 3.762,2.340486 6.26956,2.340492 z m 32.24772,0 c 0.53907,0 1.634,-0.205832 3.26977,-0.600127 0.11801,-0.866138 0.27582,-2.029534 0.50996,-3.510728 l -1.16991,-0.150032 c -0.47676,1.951339 -1.5174,2.940613 -3.14979,2.940613 -0.73363,0 -1.33523,-0.188944 -1.76987,-0.600127 -0.43715,-0.408629 -0.65995,-0.964837 -0.65995,-1.620336 0,-1.02707 0.75252,-1.854914 2.21984,-2.520526 0.80356,-0.34544 1.60721,-0.708145 2.39984,-1.050219 0.91137,-0.438128 1.56932,-0.917074 2.00983,-1.440296 0.56267,-0.681618 0.83995,-1.510311 0.83995,-2.520527 0,-1.4576 -0.58895,-2.639211 -1.76987,-3.540734 -1.09583,-0.842547 -2.4244,-1.260261 -4.01972,-1.260261 -1.13544,0 -2.47606,0.284611 -3.98971,0.870181 -0.0621,0.283095 -0.33233,1.563397 -0.80994,3.840798 l 1.10992,0.150032 c 0.57614,-1.148388 1.11704,-1.979933 1.61988,-2.490518 0.71091,-0.72375 1.54612,-1.080226 2.51982,-1.080226 1.87585,0 2.8198,0.856364 2.8198,2.610544 0,0.711104 -0.22923,1.299379 -0.68996,1.770368 -0.35545,0.371558 -0.94691,0.755196 -1.76987,1.140235 -1.71408,0.793683 -2.78524,1.341128 -3.20975,1.650343 -1.14218,0.819801 -1.7099,1.812117 -1.7099,2.970618 0,1.365769 0.55405,2.474992 1.64991,3.300686 1.01665,0.757445 2.26219,1.140239 3.74972,1.140239 z m -146.209638,-0.360076 0,-11.64242 c 0,-1.03381 0.09881,-1.660376 0.269886,-1.890394 0.253512,-0.355552 0.906602,-0.570637 1.979874,-0.600124 l 0,-1.050219 -4.889644,0 0,11.642419 c 0,1.096155 -0.06154,1.753251 -0.210037,1.950407 -0.224152,0.332806 -0.890172,0.517365 -2.009859,0.540111 l 7.1e-5,1.05022 z m 7.70948,0 10.13926,-10.952277 0,10.952277 3.89974,0 0,-1.05022 c -1.31908,-0.01271 -2.03552,-0.348512 -2.15985,-0.960197 -0.12252,-0.609163 -0.18011,-2.016668 -0.18011,-4.230881 l 0,-9.091888 -1.04993,0 -10.46926,11.462382 0,-7.351527 c 0.006,-0.770089 0.0776,-1.392962 0.21004,-1.9204 0.14483,-0.592311 0.96236,-0.937127 2.42982,-0.990207 l 0,-1.050219 -6.50953,0 0,1.050219 c 1.32007,0.01694 2.0222,0.335034 2.12984,0.9602 0.12902,0.704364 0.21004,2.118613 0.21004,4.230878 l 1.5e-5,8.94186 z m 16.19882,0 1.37992,0 10.10928,-10.952277 0,10.952277 3.89971,0 0,-1.05022 c -1.31905,-0.0127 -2.03518,-0.348509 -2.15985,-0.960194 -0.12224,-0.609163 -0.18011,-2.016668 -0.18011,-4.230881 l 0,-9.091888 -1.04993,0 -10.43925,11.462382 0,-7.351527 c 0.009,-0.770089 0.0788,-1.392962 0.21004,-1.9204 0.14483,-0.592311 0.93167,-0.937127 2.39984,-0.990207 l 0,-1.050219 -6.50956,0 0,1.050219 c 1.31976,0.01694 2.0213,0.335034 2.12987,0.9602 0.12902,0.704364 0.21004,2.118613 0.21004,4.230878 z m 72.804838,0 c 0,-0.902368 0.072,-2.172557 0.21004,-3.840798 l -1.1399,-0.120014 c -0.26283,1.174506 -0.57165,1.910404 -0.95993,2.220463 -0.39171,0.305841 -1.22584,0.450093 -2.45983,0.450093 l -1.37992,0 0,-10.352153 c 0,-1.073405 0.12675,-1.733545 0.35997,-1.980412 0.27638,-0.299101 1.02986,-0.480619 2.27986,-0.510105 l 0,-1.05022 -7.82946,0 0,1.05022 c 1.18767,0.02948 1.93344,0.231415 2.21984,0.570117 0.22415,0.253611 0.32999,0.893331 0.32999,1.9204 l 0,10.352153 -5.6396,0 -3e-5,1.290262 z m 6.14956,0 0,-11.64242 c 0,-1.03381 0.0714,-1.660376 0.23996,-1.890394 0.25605,-0.355552 0.9376,-0.570637 2.00986,-0.600124 l 0,-1.050219 -4.88965,0 0,11.642419 c 0,1.096155 -0.0618,1.753251 -0.21004,1.950407 -0.2233,0.332806 -0.89124,0.517365 -2.00986,0.540111 l 5e-5,1.05022 z m 22.9484,0 10.13927,-10.952277 0,10.952277 3.89971,0 0,-1.05022 c -1.31903,-0.01271 -2.03855,-0.348512 -2.15983,-0.960197 -0.12478,-0.609163 -0.21003,-2.016668 -0.21003,-4.230881 l 0,-9.091888 -1.04993,0 -10.43925,11.462382 0,-7.351527 c 0.006,-0.770089 0.0785,-1.392962 0.21004,-1.9204 0.14482,-0.592311 0.95914,-0.937127 2.42982,-0.990207 l 0,-1.050219 -6.50953,0 0,1.050219 c 1.31905,0.01694 2.02118,0.335034 2.12984,0.9602 0.13155,0.704364 0.18011,2.118613 0.18011,4.230878 l -7e-5,8.94186 z m -78.44445,-0.960198 c -1.72758,0 -3.041598,-0.629622 -3.959718,-1.9204 -0.79009,-1.108789 -1.16991,-2.539047 -1.16991,-4.230878 0,-1.859504 0.46903,-3.43471 1.4099,-4.770992 1.07983,-1.559556 2.571108,-2.340486 4.469678,-2.340486 1.67451,0 2.96474,0.595535 3.89971,1.800375 0.81536,1.065821 1.2299,2.408197 1.2299,4.020836 0,4.963444 -1.96788,7.441545 -5.87956,7.441545 z m 65.9653,0 c -1.72758,0 -3.07158,-0.629622 -3.98971,-1.9204 -0.7867,-1.108794 -1.16991,-2.539053 -1.16991,-4.230884 0,-1.859504 0.46903,-3.43471 1.4099,-4.770991 1.07986,-1.559556 2.57112,-2.340487 4.46969,-2.340487 1.67451,0 2.96477,0.595536 3.89971,1.800375 0.81875,1.065821 1.22993,2.408197 1.22993,4.020836 0,4.963444 -1.93451,7.441546 -5.84961,7.441551 z m -37.79731,-2.700568 -1.76987,-4.530941 3.56975,0 z"
       id="path2947"
       inkscape:connector-curvature="0"
       inkscape:export-filename="/home/john/dev/lunatechDOTse/img/logo_full_w600.png"
       inkscape:export-xdpi="90"
       inkscape:export-ydpi="90"
       sodipodi:nodetypes="sssssssssccscccccsccccccscsccccccccccccccccccccscsccccccccsccccsccccccccccccscccscccscccccccccccccccccccccccccccccsccccccscscccsccsccccsccccscscccsccscsccccccccsccccccccsccsccccccccscccccccccssssssssssccccccccsccscccccccccscscscscsscscscscsscccscscccscsccccsscccscscsccccsccccccccccsccccccccccscccccccccsccccccccccscccccscsccccccscccccsccccsccccccccccsccccccccccsccscscscssscscscsscccc" /></g></svg>