<?xml version="1.0" encoding="UTF-8" standalone="no"?>
<!-- Created with Inkscape (http://www.inkscape.org/) -->

<svg
   xmlns:osb="http://www.openswatchbook.org/uri/2009/osb"
   xmlns:dc="http://purl.org/dc/elements/1.1/"
   xmlns:cc="http://creativecommons.org/ns#"
   xmlns:rdf="http://www.w3.org/1999/02/22-rdf-syntax-ns#"
   xmlns:svg="http://www.w3.org/2000/svg"
   xmlns="http://www.w3.org/2000/svg"
   xmlns:xlink="http://www.w3.org/1999/xlink"
   xmlns:sodipodi="http://sodipodi.sourceforge.net/DTD/sodipodi-0.dtd"
   xmlns:inkscape="http://www.inkscape.org/namespaces/inkscape"
   id="svg2933"
   version="1.1"
   inkscape:version="0.91 r13725"
   width="800"
   height="254"
   xml:space="preserve"
   sodipodi:docname="logo_full.svg"
   inkscape:export-filename="/home/john/dev/lunatechDOTse/img/logo_full_w800.png"
   inkscape:export-xdpi="90"
   inkscape:export-ydpi="90"><metadata
     id="metadata2939"><rdf:RDF><cc:Work
         rdf:about=""><dc:format>image/svg+xml</dc:format><dc:type
           rdf:resource="http://purl.org/dc/dcmitype/StillImage" /><dc:title></dc:title></cc:Work></rdf:RDF></metadata><defs
     id="defs2937"><linearGradient
       id="linearGradient5373"
       osb:paint="solid"><stop
         style="stop-color:#970908;stop-opacity:1;"
         offset="0"
         id="stop5375" /></linearGradient><linearGradient
       id="linearGradient5351"><stop
         style="stop-color:#660000;stop-opacity:1;"
         offset="0"
         id="stop5353" /><stop
         style="stop-color:#b30000;stop-opacity:1"
         offset="1"
         id="stop5355" /></linearGradient><inkscape:perspective
       sodipodi:type="inkscape:persp3d"
       inkscape:vp_x="0 : 0.5 : 1"
       inkscape:vp_y="0 : 1000 : 0"
       inkscape:vp_z="1 : 0.5 : 1"
       inkscape:persp3d-origin="0.5 : 0.33333333 : 1"
       id="perspective2941" /><linearGradient
       inkscape:collect="always"
       xlink:href="#linearGradient5351"
       id="linearGradient4204"
       x1="1.7797444"
       y1="78.902344"
       x2="250.94499"
       y2="78.30909"
       gradientUnits="userSpaceOnUse"
       spreadMethod="reflect"
       gradientTransform="matrix(1.333357,0,0,1.3334079,-0.00567845,-0.272365)" /></defs><sodipodi:namedview
     pagecolor="#ffffff"
     bordercolor="#666666"
     borderopacity="1"
     objecttolerance="10"
     gridtolerance="10"
     guidetolerance="10"
     inkscape:pageopacity="0"
     inkscape:pageshadow="2"
     inkscape:window-width="1855"
     inkscape:window-height="1056"
     id="namedview2935"
     showgrid="false"
     inkscape:zoom="0.95353535"
     inkscape:cx="161.44671"
     inkscape:cy="-17.695461"
     inkscape:window-x="65"
     inkscape:window-y="24"
     inkscape:window-maximized="1"
     inkscape:current-layer="g2943"
     units="mm" /><g
     id="g2943"
     inkscape:groupmode="layer"
     inkscape:label="ink_ext_XXXXXX"
     transform="matrix(1.25,0,0,-1.25,0,254.00001)"><path
       inkscape:export-ydpi="90"
       inkscape:export-xdpi="90"
       inkscape:export-filename="/home/john/dev/lunatechDOTse/img/logo_full_w600.png"
       inkscape:connector-curvature="0"
       id="path4153"
       d="m 21.092792,201.14025 c -9.136111,0 -16.603766,-7.43941 -16.603766,-16.54093 l 0,-165.99863 c 0,-9.1015262 7.467655,-16.5409222 16.603766,-16.5409222 l 597.814408,0 c 9.13607,0 16.60377,7.439396 16.60377,16.5409222 l 0,165.99863 c 0,9.10152 -7.4677,16.54093 -16.60377,16.54093 z"
       style="fill:#ffffff;fill-opacity:1;fill-rule:nonzero;stroke:#000000;stroke-width:0.03400308;stroke-miterlimit:4;stroke-dasharray:none;stroke-opacity:1"
       sodipodi:nodetypes="sssssssss" /><path
       style="fill:url(#linearGradient4204);fill-opacity:1;fill-rule:nonzero;stroke:#000000;stroke-width:0.03400306;stroke-miterlimit:4;stroke-dasharray:none;stroke-opacity:1"
       d="m 16.856108,202.96672 c -9.2656073,0 -16.83910875,-7.57592 -16.83910875,-16.84444 l 0,-169.044549 c 0,-9.268527 7.57350145,-16.844439 16.83910875,-16.844439 l 606.287782,0 c 9.26556,0 16.83911,7.575912 16.83911,16.844439 l 0,169.044549 c 0,9.26852 -7.57355,16.84444 -16.83911,16.84444 z m 1.679909,-15.76415 43.477691,0 0,-88.503321 c 0,-6.279904 0.311297,-10.379668 0.959939,-12.323248 0.644914,-1.737991 1.966625,-3.01596 3.919813,-3.881026 0.964717,-0.386468 214.06859,-1.200316 214.06859,-1.200316 l 26.51858,-26.246918 56.91697,0 c 0,0 15.95826,-27.487249 45.55758,-27.487249 l 201.34931,0 18.95902,-11.042909 -305.18378,0 -54.27716,53.214026 -256.506321,0.440118 0,4.201108 5.199705,0 c 6.050256,0 10.511545,1.387963 13.319311,4.201107 2.377823,3.028843 3.55981,7.894673 3.55981,14.60385 l 0,82.021618 -17.839058,0 z m 138.992623,-19.80523 8.67952,0 49.31739,-51.37352 0,51.37352 6.27963,0 0,-74.219548 -2.03988,0 -55.99699,57.855238 0,-57.855238 -6.23967,0 z m 123.19341,-1.40037 129.19316,0 2.59987,-28.56753 -6.47967,-0.32008 c -1.08825,6.7012 -3.03643,11.46635 -5.83968,14.28376 -3.2469,2.3751 -6.37274,3.87172 -9.3995,4.5212 -3.2469,0.86494 -8.4439,1.28033 -15.5992,1.28033 l -22.03881,0 0,-68.738115 c 0,-5.41057 0.51614,-9.203709 1.59992,-11.362995 0.43799,-2.159286 2.16846,-3.34973 5.1997,-3.560937 l 2.27988,0 0,-6.161624 -46.39751,0 0,6.161624 2.91986,0 c 3.24686,0.211199 5.39138,1.401651 6.47964,3.560937 1.29829,1.948075 1.95988,5.733348 1.95988,11.362995 l 0,68.738115 -42.07776,0 z m -192.789724,-1.44037 0,-46.09214 c 0,-3.2423 0.268751,-6.18256 0.799961,-8.88234 0.539209,-2.02223 1.566227,-3.991 3.039854,-5.88155 2.03168,-2.42768 4.44905,-4.037671 7.27959,-4.841281 2.969139,-1.215133 6.310439,-1.800474 10.079459,-1.800474 4.04889,1.746636 6.4721,2.961605 7.27963,3.640955 0.68059,0.52713 2.97573,4.96825 6.87961,13.32351 2.16312,1.08403 3.95611,2.42565 5.43971,4.04107 0.8064,0.8035 2.39875,3.11688 4.67976,6.88181 l 0,39.61044 15.35918,0 0,-4.44117 -9.71949,0 0,-39.21033 c 0,-4.0467 -0.31581,-7.61961 -0.99995,-10.72283 -0.66712,-2.69405 -1.81579,-5.18675 -3.4398,-7.48197 -2.68422,-3.778525 -6.21121,-6.526329 -10.51945,-8.282184 -4.31271,-1.75495 -10.08002,-2.640694 -17.35908,-2.640694 -13.341219,0 -22.666626,3.769866 -27.918506,11.322988 -2.290121,3.36588 -3.575624,7.67472 -3.83979,12.92341 0,0.68103 -0.01133,2.06685 -0.0798,4.16109 -0.07943,2.08413 -0.120082,4.89141 -0.120082,8.40222 l -5.3e-5,35.96947 z m 174.470734,0 7.27959,0 35.3981,-72.17902 5.55971,0 0,-4.441169 -21.11888,0 0,4.441169 -6.07966,13.76363 0,0.20005 -5.03972,11.52304 -32.35831,0 -11.51937,-25.48672 -7.27963,0 0,4.241117 c 1.34663,1.084477 3.52254,4.524663 6.47967,10.322723 z m -0.40002,-14.12372 -13.31927,-27.92736 27.47856,0 z m 128.55323,-38.3301 67.51635,0 1,-1.60042 0.79992,-24.886561 -2.39985,-0.400108 c -1.07934,6.064538 -4.00812,10.921364 -8.71958,14.56384 -4.85178,3.773689 -10.23137,6.065169 -16.1591,6.881819 -1.21858,0.12244 -3.08127,0.20005 -5.6397,0.20005 l -6.47967,0 c -5.24714,-0.67194 -9.84972,-2.31755 -13.75927,-4.88128 -8.3525,-5.124879 -13.01697,-13.059972 -13.95925,-23.846292 l 58.03691,0 0,-4.841274 -58.43685,0 0,-0.200054 c 0,-9.839237 3.04239,-17.684646 9.11948,-23.486189 6.06252,-6.056561 14.39616,-9.082394 25.0387,-9.082394 12.66969,0 23.33285,4.403876 31.95824,13.163468 l 2.4399,-1.240328 c -2.83024,-3.234438 -6.15485,-6.115186 -9.91948,-8.682285 -8.63326,-5.389226 -18.0747,-8.082136 -28.31849,-8.082136 -9.1645,0 -17.68929,1.966304 -25.63863,5.881555 -7.27885,3.764707 -12.8896,8.728062 -16.79914,14.923932 -3.37374,5.389224 -5.03973,11.071501 -5.03973,17.004485 0,10.782945 5.05577,19.929854 15.15925,27.487242 0.26837,0.13168 0.45956,0.20006 0.59993,0.20006 l -0.39994,0 z m 121.67352,-0.80021 25.07867,0 0,-4.04107 -24.67873,0 c -6.20399,-0.26726 -11.51051,-1.9426 -15.95913,-5.04132 -8.48389,-5.932875 -12.71933,-15.38636 -12.71933,-28.32747 0,-9.567375 2.62347,-17.180427 7.87959,-22.846023 5.38303,-6.065547 12.73839,-9.122407 22.03882,-9.122407 11.31414,0 20.65931,4.330767 28.07853,12.963419 l 2.23986,-1.200318 c -2.56626,-3.506304 -5.55022,-6.376436 -8.91953,-8.522243 -7.27319,-5.262279 -15.48314,-7.882082 -24.63868,-7.882082 -8.36149,0 -15.90021,1.971916 -22.63882,5.881552 -6.3309,3.506308 -11.18988,8.290379 -14.55918,14.363786 -2.97064,5.112863 -4.4398,10.700002 -4.4398,16.76442 0,10.378504 4.42658,19.335425 13.31931,26.887086 8.08972,6.73727 18.05959,10.12267 29.91842,10.12267 z m 38.59793,-1.20032 12.95931,0 0,-32.968688 36.99806,0 0,32.968688 26.27857,0 0,-4.48118 -13.1593,0 0,-56.414867 c 0,-3.515297 0.63371,-5.830773 1.83989,-7.041855 1.07034,-1.351527 3.27487,-2.108029 6.63965,-2.240595 l 2.83988,0 0,-2.040538 -35.7581,0 0,2.040538 2.83983,0 c 3.21994,0.132581 5.4323,0.889068 6.63965,2.240595 1.21519,1.211082 1.83993,3.526558 1.83993,7.041855 l 0,23.046073 -36.99806,0 0,-23.046073 c 0,-3.370375 0.58024,-5.694825 1.7999,-7.041855 l 9.7195,0 0,-4.281133 -24.47871,0 z m -405.21847,-61.576229 5.7597,-4.441167 c 1.29831,-3.204109 3.46455,-8.292059 6.43966,-15.244023 3.51867,8.22371 5.2797,12.656611 5.2797,13.283502 0,0.289858 -0.24618,0.494557 -0.71993,0.600161 -0.59188,0.122447 -1.43092,0.602972 -2.47988,1.480392 l 10.95941,0 -1.03996,-1.400371 c -0.89508,-0.02147 -1.5167,-0.0497 -1.91988,-0.08002 -0.84234,-0.08314 -1.40249,-0.264442 -1.67991,-0.48013 -0.6177,-0.48646 -3.47866,-6.609232 -8.55956,-18.444862 l -1.47992,0 z M 345.5986,47.885854 c -7.35744,0 -13.31926,-5.960369 -13.31926,-13.323513 0,-7.355284 5.96182,-13.323512 13.31926,-13.323512 7.36084,0 13.31932,5.968228 13.31932,13.323512 0,7.363144 -5.95848,13.323513 -13.31932,13.323513 z M 39.654905,47.365719 c 7.115966,0 12.919293,-5.769666 12.919293,-12.8834 0,-7.113732 -5.803327,-12.883397 -12.919293,-12.883397 -7.115892,0 -12.879318,5.769665 -12.879318,12.883397 0,7.113734 5.763426,12.8834 12.879318,12.8834 z M 174.92771,44.765032 c 0.77157,-1.864941 3.03161,-7.442402 6.79961,-16.724411 0.43017,-1.061669 0.84908,-1.738327 1.23995,-2.040539 0.45148,-0.356128 1.25024,-0.560838 2.35987,-0.600156 l 0,-1.440382 -8.79953,0 0,1.440382 c 0.91643,-0.03163 1.34171,-0.04003 1.27993,-0.04003 0.64913,0.02147 0.95994,0.168915 0.95994,0.480124 0,0.398828 -0.71669,2.23871 -2.15988,5.521457 l -6.23966,0 c -1.21519,-2.96256 -1.79991,-4.696508 -1.79991,-5.241381 0,-0.433652 0.34178,-0.686056 0.99995,-0.7602 0.0832,0 0.55379,0.0087 1.43991,0.04003 l 0,-1.440382 -7.83955,0 0,1.400371 c 1.2017,0.07414 2.00521,0.307894 2.43985,0.720189 0.26726,0.255028 0.65564,0.98431 1.15993,2.16057 l 6.91963,16.08424 z m -38.11799,-0.08002 c 3.20647,0 5.82208,-1.004418 7.87957,-3.000795 2.0261,-1.944702 3.03983,-4.385205 3.03983,-7.321932 0,-3.115341 -1.04053,-5.685208 -3.15983,-7.722034 -2.1586,-2.079524 -4.95541,-3.120823 -8.35954,-3.120823 -3.21992,0 -5.87058,0.981249 -7.95958,2.960781 -2.08782,1.975035 -3.11981,4.448379 -3.11981,7.401951 0,3.067035 1.09608,5.614858 3.3198,7.682028 2.22038,2.071648 5.01161,3.120824 8.35956,3.120824 z m 87.91532,0 c 3.21095,0 5.82204,-1.004418 7.87957,-3.000795 2.02724,-1.944702 3.03987,-4.385205 3.03987,-7.321932 0,-3.115341 -1.04053,-5.685208 -3.15983,-7.722034 -2.1586,-2.079531 -4.95093,-3.120829 -8.35958,-3.120829 -3.21994,0 -5.87058,0.981248 -7.95958,2.960779 -2.08784,1.975035 -3.11981,4.448379 -3.11981,7.401952 0,3.067034 1.09608,5.614858 3.3198,7.682028 2.2204,2.071647 5.01609,3.120823 8.35956,3.120831 z m 42.99773,0 c 0.71877,0 2.1787,-0.274458 4.35977,-0.800214 0.15735,-1.154915 0.36776,-2.706197 0.67996,-4.681233 l -1.55991,-0.200053 c -0.63569,2.60193 -2.02324,3.921036 -4.1998,3.921036 -0.97819,0 -1.78034,-0.251939 -2.35987,-0.800214 -0.58287,-0.544869 -0.87994,-1.286521 -0.87994,-2.160569 0,-1.369503 1.00337,-2.473357 2.95983,-3.360889 1.07144,-0.460612 2.14299,-0.944246 3.19985,-1.40037 1.21518,-0.584204 2.09246,-1.222834 2.67982,-1.920502 0.75024,-0.908875 1.11995,-2.013861 1.11995,-3.360891 0,-1.943575 -0.78528,-3.519145 -2.35987,-4.721243 -1.46113,-1.123459 -3.23259,-1.680442 -5.35972,-1.680442 -1.51395,0 -3.30147,0.379503 -5.31971,1.160307 -0.0828,0.377481 -0.44311,2.084645 -1.07994,5.12135 l 1.47992,0.200054 c 0.7682,-1.53127 1.48942,-2.640058 2.15988,-3.320877 0.9479,-0.965054 2.06153,-1.440381 3.35982,-1.440381 2.50118,0 3.7598,1.141882 3.7598,3.48092 0,0.948191 -0.30564,1.732602 -0.91996,2.360622 -0.47394,0.495439 -1.26257,1.006985 -2.35987,1.520399 -2.28548,1.058303 -3.71372,1.78827 -4.27974,2.20058 -1.52294,1.093129 -2.27991,2.416291 -2.27991,3.961045 0,1.821128 0.73875,3.300174 2.19992,4.401161 1.35556,1.009983 3.01631,1.520404 4.99972,1.520404 z m -194.949647,-0.480128 0,-15.524095 c 0,-1.37849 0.131749,-2.213958 0.359855,-2.520666 0.338022,-0.474096 1.208824,-0.760892 2.639879,-0.80021 l 0,-1.400371 -6.519641,0 0,15.524094 c 0,1.461621 -0.08205,2.337798 -0.280055,2.600688 -0.298874,0.443766 -1.186917,0.689858 -2.679859,0.720188 l 9.4e-5,1.400372 z m 10.27949,0 13.519248,-14.603853 0,14.603853 5.199749,0 0,-1.400372 c -1.75881,-0.01695 -2.714069,-0.464709 -2.879849,-1.280334 -0.16336,-0.812263 -0.24015,-2.689041 -0.24015,-5.64149 l 0,-12.123196 -1.39993,0 -13.959264,15.284031 0,-9.802584 c 0.008,-1.026843 0.103468,-1.857387 0.280058,-2.560677 0.19311,-0.789792 1.28317,-1.249572 3.239818,-1.320349 l 0,-1.400371 -8.679528,0 0,1.400371 c 1.760125,0.02259 2.696315,0.446737 2.839837,1.280338 0.17203,0.939204 0.280059,2.824975 0.280059,5.641486 l 2e-5,11.923147 z m 21.598807,0 1.83993,0 13.47928,-14.603853 0,14.603853 5.1997,0 0,-1.400372 c -1.75876,-0.01693 -2.71362,-0.464705 -2.87985,-1.28033 -0.16299,-0.812263 -0.24015,-2.689041 -0.24015,-5.64149 l 0,-12.123196 -1.39993,0 -13.91925,15.284031 0,-9.802584 c 0.012,-1.026843 0.10507,-1.857387 0.28006,-2.560677 0.19311,-0.789792 1.24225,-1.249572 3.19984,-1.320349 l 0,-1.400371 -8.67956,0 0,1.400371 c 1.75971,0.02259 2.69511,0.446737 2.83987,1.280338 0.17203,0.939204 0.28006,2.824975 0.28006,5.641486 z m 97.07484,0 c 0,-1.203225 0.096,-2.896905 0.28006,-5.121351 l -1.51989,-0.160027 c -0.35045,1.566095 -0.76222,2.547348 -1.27993,2.960783 -0.52229,0.40781 -1.63449,0.600157 -3.27984,0.600157 l -1.83992,0 0,-13.803642 c 0,-1.431287 0.169,-2.311523 0.47997,-2.640697 0.36851,-0.398824 1.37317,-0.640862 3.03986,-0.680178 l 0,-1.400372 -10.43946,0 0,1.400372 c 1.58359,0.03931 2.57796,0.30857 2.95984,0.760198 0.29887,0.338167 0.43999,1.191175 0.43999,2.560677 l 0,13.803642 -7.5196,0 -4e-5,1.720446 z m 8.19956,0 0,-15.524095 c 0,-1.37849 0.0952,-2.213958 0.31995,-2.520666 0.34141,-0.474096 1.25016,-0.760892 2.67986,-0.80021 l 0,-1.400371 -6.51965,0 0,15.524094 c 0,1.461621 -0.0824,2.337798 -0.28005,2.600688 -0.29774,0.443766 -1.18835,0.689858 -2.67987,0.720188 l 7e-5,1.400372 z m 30.59841,0 13.51927,-14.603853 0,14.603853 5.1997,0 0,-1.400372 c -1.75874,-0.01695 -2.71811,-0.464709 -2.87982,-1.280334 -0.16638,-0.812263 -0.28005,-2.689041 -0.28005,-5.64149 l 0,-12.123196 -1.39993,0 -13.91925,15.284031 0,-9.802584 c 0.008,-1.026843 0.10467,-1.857387 0.28006,-2.560677 0.1931,-0.789792 1.27888,-1.249572 3.23982,-1.320349 l 0,-1.400371 -8.67953,0 0,1.400371 c 1.75877,0.02259 2.69496,0.446737 2.83984,1.280338 0.1754,0.939204 0.24015,2.824975 0.24015,5.641486 l -9e-5,11.923147 z M 135.92977,42.92455 c -2.30348,0 -4.05553,-0.839543 -5.27971,-2.560676 -1.05348,-1.478468 -1.55991,-3.385586 -1.55991,-5.641486 0,-2.479478 0.62538,-4.57987 1.8799,-6.361679 1.4398,-2.079524 3.4282,-3.120822 5.95967,-3.120822 2.23272,0 3.95306,0.794091 5.19971,2.400634 1.08717,1.421174 1.6399,3.211109 1.6399,5.361414 0,6.618296 -2.62389,9.922615 -7.83956,9.922615 z m 87.9553,0 c -2.30348,0 -4.09552,-0.839543 -5.31971,-2.560676 -1.04895,-1.478475 -1.55991,-3.385594 -1.55991,-5.641494 0,-2.479478 0.62539,-4.57987 1.8799,-6.361678 1.43984,-2.079524 3.42822,-3.120823 5.95969,-3.120823 2.23272,0 3.9531,0.794092 5.19971,2.400634 1.09169,1.421174 1.63994,3.211109 1.63994,5.361414 0,6.618296 -2.5794,9.922617 -7.79962,9.922623 z m -50.39731,-3.600959 -2.35987,-6.041592 4.75975,0 z"
       id="path2947"
       inkscape:connector-curvature="0"
       inkscape:export-filename="/home/john/dev/lunatechDOTse/img/logo_full_w600.png"
       inkscape:export-xdpi="90"
       inkscape:export-ydpi="90"
       sodipodi:nodetypes="sssssssssccscccccsccccccscsccccccccccccccccccccscsccccccccsccccsccccccccccccscccscccscccccccccccccccccccccccccccccsccccccscscccsccsccccsccccscscccsccscsccccccccsccccccccsccsccccccccscccccccccssssssssssccccccccsccscccccccccscscscscsscscscscsscccscscccscsccccsscccscscsccccsccccccccccsccccccccccscccccccccsccccccccccscccccscsccccccscccccsccccsccccccccccsccccccccccsccscscscssscscscsscccc" /></g></svg>